<?xml version="1.0" encoding="UTF-8" standalone="no"?>
<svg
   width="30"
   height="30"
   viewBox="0 0 7.9374992 7.9375002"
   version="1.1"
   id="svg8"
   inkscape:version="1.2.1 (9c6d41e410, 2022-07-14)"
   sodipodi:docname="map_marker.svg"
   xmlns:inkscape="http://www.inkscape.org/namespaces/inkscape"
   xmlns:sodipodi="http://sodipodi.sourceforge.net/DTD/sodipodi-0.dtd"
   xmlns="http://www.w3.org/2000/svg"
   xmlns:svg="http://www.w3.org/2000/svg"
   xmlns:rdf="http://www.w3.org/1999/02/22-rdf-syntax-ns#"
   xmlns:cc="http://creativecommons.org/ns#"
   xmlns:dc="http://purl.org/dc/elements/1.1/">
  <defs
     id="defs2" />
  <sodipodi:namedview
     id="base"
     pagecolor="#ffffff"
     bordercolor="#666666"
     borderopacity="1.0"
     inkscape:pageopacity="0.0"
     inkscape:pageshadow="2"
     inkscape:zoom="8.2251543"
     inkscape:cx="37.689263"
     inkscape:cy="22.309612"
     inkscape:document-units="px"
     inkscape:current-layer="layer1"
     inkscape:document-rotation="0"
     showgrid="true"
     units="px"
     inkscape:window-width="1920"
     inkscape:window-height="991"
     inkscape:window-x="-9"
     inkscape:window-y="-9"
     inkscape:window-maximized="1"
     inkscape:showpageshadow="2"
     inkscape:pagecheckerboard="0"
     inkscape:deskcolor="#d1d1d1">
    <inkscape:grid
       type="xygrid"
       id="grid833"
       originx="0"
       originy="0"
       dotted="true" />
  </sodipodi:namedview>
  <metadata
     id="metadata5">
    <rdf:RDF>
      <cc:Work
         rdf:about="">
        <dc:format>image/svg+xml</dc:format>
        <dc:type
           rdf:resource="http://purl.org/dc/dcmitype/StillImage" />
        <dc:title />
      </cc:Work>
    </rdf:RDF>
  </metadata>
  <g
     inkscape:label="Layer 1"
     inkscape:groupmode="layer"
     id="layer1">
    <path
       id="path837"
       style="fill:#8800bd;fill-opacity:0.5;stroke-width:2.64583"
       d="M 3.9687498 0.22685953 L 2.0980631 2.0980631 A 2.6458333 2.6458333 0 0 0 2.0944457 2.1016804 A 2.6458333 2.6458333 0 0 0 2.0980631 5.8394366 A 2.6458333 2.6458333 0 0 0 5.8394366 5.8394366 A 2.6458333 2.6458333 0 0 0 5.8394366 2.0980631 A 2.6458333 2.6458333 0 0 0 5.8358193 2.0944457 L 3.9687498 0.22685953 z M 3.9294758 2.9197183 A 1.0497044 1.0497044 0 0 1 4.7108234 3.2266763 A 1.0497044 1.0497044 0 0 1 4.7108234 4.7108234 A 1.0497044 1.0497044 0 0 1 3.2266763 4.7108234 A 1.0497044 1.0497044 0 0 1 3.2266763 3.2266763 A 1.0497044 1.0497044 0 0 1 3.9294758 2.9197183 z " />
  </g>
</svg>
